<?xml version="1.0" encoding="UTF-8"?>
<!DOCTYPE svg PUBLIC "-//W3C//DTD SVG 1.1//EN" "http://www.w3.org/Graphics/SVG/1.1/DTD/svg11.dtd">
<svg xmlns="http://www.w3.org/2000/svg" version="1.1" width="189px" height="174px" style="shape-rendering:geometricPrecision; text-rendering:geometricPrecision; image-rendering:optimizeQuality; fill-rule:evenodd; clip-rule:evenodd" xmlns:xlink="http://www.w3.org/1999/xlink">
<g><path style="opacity:1" fill="#fefefe" d="M -0.5,-0.5 C 62.5,-0.5 125.5,-0.5 188.5,-0.5C 188.5,57.5 188.5,115.5 188.5,173.5C 125.5,173.5 62.5,173.5 -0.5,173.5C -0.5,115.5 -0.5,57.5 -0.5,-0.5 Z"/></g>
<g><path style="opacity:1" fill="#252523" d="M 77.5,8.5 C 124.01,6.8627 152.843,28.5294 164,73.5C 166.947,106.375 154.78,131.875 127.5,150C 88.6085,169.022 55.1085,162.189 27,129.5C 7.76996,99.4796 7.76996,69.4796 27,39.5C 40.1985,23.155 57.0319,12.8217 77.5,8.5 Z"/></g>
<g><path style="opacity:1" fill="#f7f1c0" d="M 103.5,12.5 C 101.508,12.3285 99.8415,12.9951 98.5,14.5C 97.8313,16.6309 97.1646,18.6309 96.5,20.5C 95.8478,19.2749 94.6811,18.6083 93,18.5C 89.6635,18.5036 88.1635,20.1702 88.5,23.5C 85.755,23.627 83.755,22.4603 82.5,20C 80.4328,19.4644 78.5994,19.9644 77,21.5C 76.5034,23.8098 76.3367,26.1432 76.5,28.5C 73.4989,28.2376 70.8322,27.4042 68.5,26C 66.8757,27.1171 65.8757,28.6171 65.5,30.5C 66.9371,32.5771 67.6038,34.9105 67.5,37.5C 65.1667,37.5 62.8333,37.5 60.5,37.5C 61.1098,36.609 61.4431,35.609 61.5,34.5C 62.4584,34.0472 63.2917,33.3805 64,32.5C 63.1484,25.858 65.9818,23.1913 72.5,24.5C 73.0609,21.538 74.0609,18.7047 75.5,16C 75.2926,14.0503 74.2926,12.8836 72.5,12.5C 77.2449,11.001 82.2449,10.3343 87.5,10.5C 93.0767,10.3682 98.41,11.0349 103.5,12.5 Z"/></g>
<g><path style="opacity:1" fill="#cea263" d="M 96.5,20.5 C 97.1287,26.4316 99.1287,26.9316 102.5,22C 103.749,21.2599 104.749,21.4265 105.5,22.5C 102.339,24.4514 100.339,26.9514 99.5,30C 109.663,40.7642 109.997,51.7642 100.5,63C 92.2699,65.3278 84.2699,64.8278 76.5,61.5C 76.5,60.1667 76.5,58.8333 76.5,57.5C 74.665,56.8777 73.4983,55.5444 73,53.5C 72.6667,53.8333 72.3333,54.1667 72,54.5C 67.2221,49.0553 64.3887,50.0553 63.5,57.5C 65.1667,57.5 66.8333,57.5 68.5,57.5C 68.7845,59.4147 68.4511,61.0813 67.5,62.5C 67.5,61.1667 67.5,59.8333 67.5,58.5C 60.8929,60.251 58.3929,57.9177 60,51.5C 62.1233,51.034 63.6233,49.8673 64.5,48C 63.615,45.8434 61.9484,45.0101 59.5,45.5C 59.2786,42.7212 59.612,40.0545 60.5,37.5C 62.8333,37.5 65.1667,37.5 67.5,37.5C 67.6038,34.9105 66.9371,32.5771 65.5,30.5C 65.8757,28.6171 66.8757,27.1171 68.5,26C 70.8322,27.4042 73.4989,28.2376 76.5,28.5C 76.3367,26.1432 76.5034,23.8098 77,21.5C 78.5994,19.9644 80.4328,19.4644 82.5,20C 83.755,22.4603 85.755,23.627 88.5,23.5C 88.1635,20.1702 89.6635,18.5036 93,18.5C 94.6811,18.6083 95.8478,19.2749 96.5,20.5 Z"/></g>
<g><path style="opacity:1" fill="#f5f19b" d="M 103.5,12.5 C 108.357,13.2309 113.024,14.5642 117.5,16.5C 117.5,19.5 117.5,22.5 117.5,25.5C 120.325,25.8384 122.492,24.8384 124,22.5C 124.414,22.9574 124.914,23.2907 125.5,23.5C 126.759,28.9158 126.426,34.2491 124.5,39.5C 123.264,38.7542 121.93,38.4208 120.5,38.5C 120.633,35.075 119.967,34.7417 118.5,37.5C 118.528,35.4176 117.861,33.5843 116.5,32C 113.808,31.5702 111.141,31.7369 108.5,32.5C 108.292,30.0799 108.626,27.7466 109.5,25.5C 108.533,24.016 107.2,23.016 105.5,22.5C 104.749,21.4265 103.749,21.2599 102.5,22C 99.1287,26.9316 97.1287,26.4316 96.5,20.5C 97.1646,18.6309 97.8313,16.6309 98.5,14.5C 99.8415,12.9951 101.508,12.3285 103.5,12.5 Z"/></g>
<g><path style="opacity:1" fill="#d89d56" d="M 81.5,34.5 C 78.495,34.253 75.995,35.253 74,37.5C 73.2926,41.3351 72.1259,45.0018 70.5,48.5C 69.7967,45.3162 67.7967,43.8162 64.5,44C 63.6433,43.3109 62.9767,42.4776 62.5,41.5C 64.396,40.5344 66.396,40.2011 68.5,40.5C 68.6204,38.8014 68.9537,37.1347 69.5,35.5C 68.3489,33.6746 67.6822,31.6746 67.5,29.5C 70.8333,29.5 74.1667,29.5 77.5,29.5C 77.2011,27.396 77.5344,25.396 78.5,23.5C 80.6201,24.8909 82.9534,25.5576 85.5,25.5C 88.5217,25.0946 91.0217,23.7613 93,21.5C 93.772,21.6448 94.4387,21.9781 95,22.5C 95.346,24.2182 95.846,25.8849 96.5,27.5C 95.3128,28.5195 94.3128,29.6861 93.5,31C 90.5,31.3333 87.5,31.6667 84.5,32C 82.8807,32.2355 81.8807,33.0689 81.5,34.5 Z"/></g>
<g><path style="opacity:1" fill="#f0ee89" d="M 117.5,16.5 C 122.528,18.6762 127.194,21.3429 131.5,24.5C 129.983,26.4621 129.316,28.7954 129.5,31.5C 129.293,34.8318 130.126,37.8318 132,40.5C 133.781,49.6052 131.448,57.2719 125,63.5C 125.5,67.8474 125.333,72.1807 124.5,76.5C 124.608,77.4419 124.941,78.2753 125.5,79C 128.167,79.3333 130.833,79.6667 133.5,80C 135.644,84.6468 134.311,87.8135 129.5,89.5C 127.5,94.5 125.5,99.5 123.5,104.5C 124.828,108.864 124.828,113.197 123.5,117.5C 122.679,114.359 122.179,111.025 122,107.5C 121.586,107.043 121.086,106.709 120.5,106.5C 119.48,110.544 117.313,113.877 114,116.5C 112.43,115.386 111.097,114.053 110,112.5C 109.782,109.574 109.282,106.74 108.5,104C 111.062,101.711 112.729,98.8772 113.5,95.5C 113.145,94.4777 112.478,93.811 111.5,93.5C 118.03,93.0437 124.03,90.877 129.5,87C 130.376,85.414 131.376,83.914 132.5,82.5C 132.167,82.1667 131.833,81.8333 131.5,81.5C 128.847,83.3868 126.181,84.8868 123.5,86C 125.167,84.3333 126.833,82.6667 128.5,81C 127.906,80.5357 127.239,80.369 126.5,80.5C 123.813,80.6641 121.146,80.4974 118.5,80C 119.772,77.9555 119.439,76.1222 117.5,74.5C 116.311,73.5713 114.978,73.238 113.5,73.5C 113.03,70.6544 113.863,68.3211 116,66.5C 117.895,68.7769 119.062,71.4435 119.5,74.5C 120.736,73.7542 122.07,73.4208 123.5,73.5C 123.785,71.712 123.452,70.0453 122.5,68.5C 120.581,67.3875 118.914,66.0542 117.5,64.5C 119.574,60.6572 118.74,57.6572 115,55.5C 114.51,54.2068 114.343,52.8734 114.5,51.5C 120.662,52.8445 122.662,50.6778 120.5,45C 118.564,44.187 116.564,43.687 114.5,43.5C 114.347,40.4647 115.68,38.4647 118.5,37.5C 119.967,34.7417 120.633,35.075 120.5,38.5C 121.93,38.4208 123.264,38.7542 124.5,39.5C 126.426,34.2491 126.759,28.9158 125.5,23.5C 124.914,23.2907 124.414,22.9574 124,22.5C 122.492,24.8384 120.325,25.8384 117.5,25.5C 117.5,22.5 117.5,19.5 117.5,16.5 Z"/></g>
<g><path style="opacity:1" fill="#f9f8d9" d="M 61.5,34.5 C 61.4431,35.609 61.1098,36.609 60.5,37.5C 59.612,40.0545 59.2786,42.7212 59.5,45.5C 61.9484,45.0101 63.615,45.8434 64.5,48C 63.6233,49.8673 62.1233,51.034 60,51.5C 58.3929,57.9177 60.8929,60.251 67.5,58.5C 67.5,59.8333 67.5,61.1667 67.5,62.5C 63.5157,64.7998 63.5157,67.1332 67.5,69.5C 68.6222,70.9473 70.1222,71.9473 72,72.5C 72.8642,75.6643 74.3642,78.331 76.5,80.5C 71.2132,81.6444 65.8799,82.6444 60.5,83.5C 61.09,84.7989 62.09,85.6322 63.5,86C 65.5767,86.1922 67.5767,86.6922 69.5,87.5C 65.6487,88.7485 61.9821,88.2485 58.5,86C 56.5985,83.3869 54.2652,81.7203 51.5,81C 52.8333,82.3333 54.1667,83.6667 55.5,85C 55.1667,85.1667 54.8333,85.3333 54.5,85.5C 52.8144,84.1431 51.1477,82.8098 49.5,81.5C 47.7601,81.152 46.0935,81.152 44.5,81.5C 44.1556,73.7576 42.6556,66.091 40,58.5C 38.3005,57.5939 36.4672,57.2606 34.5,57.5C 34.6813,54.6029 34.3479,51.7695 33.5,49C 31.5411,46.5699 29.8745,44.0699 28.5,41.5C 29.7997,38.5677 31.7997,36.2344 34.5,34.5C 35.4935,38.9916 36.8268,43.4916 38.5,48C 37.9781,48.5613 37.6448,49.228 37.5,50C 39.4144,53.2826 41.4144,56.4493 43.5,59.5C 45.1472,52.7745 45.9805,45.4412 46,37.5C 47,35.5 48,33.5 49,31.5C 51.125,30.1485 52.2917,30.8152 52.5,33.5C 50.6165,38 50.1165,42.6666 51,47.5C 53.5437,50.8716 56.377,51.2049 59.5,48.5C 55.7291,43.1609 56.3957,38.4942 61.5,34.5 Z"/></g>
<g><path style="opacity:1" fill="#fbf8e6" d="M 76.5,57.5 C 72.5201,48.4939 74.1867,40.8273 81.5,34.5C 87.9925,32.8824 94.3258,33.3824 100.5,36C 108.492,43.9544 108.492,51.9544 100.5,60C 91.8456,65.2049 83.8456,64.3716 76.5,57.5 Z"/></g>
<g><path style="opacity:1" fill="#fafae6" d="M 72.5,12.5 C 74.2926,12.8836 75.2926,14.0503 75.5,16C 74.0609,18.7047 73.0609,21.538 72.5,24.5C 65.9818,23.1913 63.1484,25.858 64,32.5C 63.2917,33.3805 62.4584,34.0472 61.5,34.5C 56.3957,38.4942 55.7291,43.1609 59.5,48.5C 56.377,51.2049 53.5437,50.8716 51,47.5C 50.1165,42.6666 50.6165,38 52.5,33.5C 52.2917,30.8152 51.125,30.1485 49,31.5C 48,33.5 47,35.5 46,37.5C 45.9805,45.4412 45.1472,52.7745 43.5,59.5C 41.4144,56.4493 39.4144,53.2826 37.5,50C 37.6448,49.228 37.9781,48.5613 38.5,48C 36.8268,43.4916 35.4935,38.9916 34.5,34.5C 44.6962,23.0632 57.3629,15.7299 72.5,12.5 Z"/></g>
<g><path style="opacity:1" fill="#dfcb57" d="M 85.5,38.5 C 91.0083,37.7219 95.5083,39.3885 99,43.5C 100.137,54.8826 95.1375,59.216 84,56.5C 79.1554,49.9399 79.6554,43.9399 85.5,38.5 Z"/></g>
<g><path style="opacity:1" fill="#fbf9dd" d="M 87.5,43.5 C 93.0001,42.8314 95.1667,45.1647 94,50.5C 91,54.5 88,54.5 85,50.5C 83.9164,47.3411 84.7498,45.0078 87.5,43.5 Z"/></g>
<g><path style="opacity:1" fill="#eeeb78" d="M 131.5,24.5 C 137.129,28.4608 142.129,33.1275 146.5,38.5C 145.357,38.9081 144.357,39.5748 143.5,40.5C 144.18,44.809 144.847,49.309 145.5,54C 145.637,57.0845 144.97,59.9179 143.5,62.5C 144.44,65.6239 143.773,68.4572 141.5,71C 143.878,71.9745 143.544,72.6411 140.5,73C 141.022,73.5613 141.355,74.228 141.5,75C 139.36,79.7713 138.027,84.7713 137.5,90C 141.051,91.6771 142.384,94.5104 141.5,98.5C 140.448,98.3505 139.448,98.5172 138.5,99C 144.75,101.871 145.083,105.371 139.5,109.5C 140.5,110.167 141.5,110.833 142.5,111.5C 141.906,114.83 141.24,118.164 140.5,121.5C 138.343,122.966 138.01,124.8 139.5,127C 140.448,127.483 141.448,127.649 142.5,127.5C 142.64,129.124 141.973,130.29 140.5,131C 141.167,131.333 141.833,131.667 142.5,132C 141.663,133.011 141.33,134.178 141.5,135.5C 134.025,144.294 124.691,150.294 113.5,153.5C 112.313,151.26 111.646,148.76 111.5,146C 112.633,143.046 113.966,140.212 115.5,137.5C 116.943,136.665 117.943,135.332 118.5,133.5C 119.948,140.078 121.115,140.078 122,133.5C 123.562,138.628 124.895,138.628 126,133.5C 127.415,139.481 129.415,139.814 132,134.5C 133.333,135.167 134.333,136.167 135,137.5C 134.954,135.687 135.12,134.021 135.5,132.5C 135.043,131.702 134.376,131.369 133.5,131.5C 131.631,130.835 129.631,130.169 127.5,129.5C 127.863,128.817 128.196,128.15 128.5,127.5C 129.833,127.5 131.167,127.5 132.5,127.5C 132.703,125.61 132.037,124.11 130.5,123C 133.063,122.237 133.063,121.737 130.5,121.5C 129.353,121.818 128.519,122.484 128,123.5C 127.536,122.906 127.369,122.239 127.5,121.5C 126.432,120.566 125.099,120.232 123.5,120.5C 123.5,119.5 123.5,118.5 123.5,117.5C 124.828,113.197 124.828,108.864 123.5,104.5C 125.5,99.5 127.5,94.5 129.5,89.5C 134.311,87.8135 135.644,84.6468 133.5,80C 130.833,79.6667 128.167,79.3333 125.5,79C 124.941,78.2753 124.608,77.4419 124.5,76.5C 125.333,72.1807 125.5,67.8474 125,63.5C 131.448,57.2719 133.781,49.6052 132,40.5C 130.126,37.8318 129.293,34.8318 129.5,31.5C 129.316,28.7954 129.983,26.4621 131.5,24.5 Z"/></g>
<g><path style="opacity:1" fill="#d49f59" d="M 105.5,22.5 C 107.2,23.016 108.533,24.016 109.5,25.5C 108.626,27.7466 108.292,30.0799 108.5,32.5C 111.141,31.7369 113.808,31.5702 116.5,32C 117.861,33.5843 118.528,35.4176 118.5,37.5C 115.68,38.4647 114.347,40.4647 114.5,43.5C 116.564,43.687 118.564,44.187 120.5,45C 122.662,50.6778 120.662,52.8445 114.5,51.5C 114.343,52.8734 114.51,54.2068 115,55.5C 118.74,57.6572 119.574,60.6572 117.5,64.5C 114.786,64.25 112.119,64.0833 109.5,64C 109.155,66.7298 108.989,69.5631 109,72.5C 108.292,73.3805 107.458,74.0472 106.5,74.5C 104.071,74.415 102.071,73.415 100.5,71.5C 98.2621,72.8527 96.9287,74.8527 96.5,77.5C 91.8682,79.7113 89.5349,78.378 89.5,73.5C 85.6909,72.8232 82.8576,74.1565 81,77.5C 79.5272,77.0969 78.1939,76.4303 77,75.5C 76.5034,73.1902 76.3367,70.8568 76.5,68.5C 73.4824,68.7038 70.4824,69.0371 67.5,69.5C 63.5157,67.1332 63.5157,64.7998 67.5,62.5C 68.4511,61.0813 68.7845,59.4147 68.5,57.5C 66.8333,57.5 65.1667,57.5 63.5,57.5C 64.3887,50.0553 67.2221,49.0553 72,54.5C 72.3333,54.1667 72.6667,53.8333 73,53.5C 73.4983,55.5444 74.665,56.8777 76.5,57.5C 76.5,58.8333 76.5,60.1667 76.5,61.5C 84.2699,64.8278 92.2699,65.3278 100.5,63C 109.997,51.7642 109.663,40.7642 99.5,30C 100.339,26.9514 102.339,24.4514 105.5,22.5 Z"/></g>
<g><path style="opacity:1" fill="#f9f9d0" d="M 28.5,41.5 C 29.8745,44.0699 31.5411,46.5699 33.5,49C 34.3479,51.7695 34.6813,54.6029 34.5,57.5C 36.4672,57.2606 38.3005,57.5939 40,58.5C 42.6556,66.091 44.1556,73.7576 44.5,81.5C 46.0935,81.152 47.7601,81.152 49.5,81.5C 48.7611,81.369 48.0944,81.5357 47.5,82C 49.1795,86.1829 52.1795,89.0162 56.5,90.5C 56.4142,91.4959 56.7476,92.3292 57.5,93C 60.6791,93.1798 62.0124,94.8465 61.5,98C 61.1734,99.8133 60.5067,101.48 59.5,103C 60.0182,104.626 60.3516,106.293 60.5,108C 59.0444,112.02 58.3777,116.187 58.5,120.5C 56.9705,119.933 55.4705,119.267 54,118.5C 52.8904,120.037 51.3904,120.703 49.5,120.5C 47.915,116.882 46.915,113.215 46.5,109.5C 47.3482,107.591 47.6816,105.591 47.5,103.5C 44.2268,103.471 43.5602,104.804 45.5,107.5C 43.9301,113.387 41.4301,118.053 38,121.5C 35.8846,116.376 34.3846,111.043 33.5,105.5C 32.1667,105.5 30.8333,105.5 29.5,105.5C 27.6379,101.124 25.4712,96.7905 23,92.5C 22.3486,90.765 22.5153,89.0983 23.5,87.5C 22.6412,83.3205 21.3079,79.3205 19.5,75.5C 20.7052,73.8791 20.5385,72.5458 19,71.5C 18.5017,68.1832 18.335,64.8499 18.5,61.5C 20.5473,54.1393 23.8807,47.4727 28.5,41.5 Z"/></g>
<g><path style="opacity:1" fill="#eeef98" d="M 117.5,64.5 C 118.914,66.0542 120.581,67.3875 122.5,68.5C 123.452,70.0453 123.785,71.712 123.5,73.5C 122.07,73.4208 120.736,73.7542 119.5,74.5C 119.062,71.4435 117.895,68.7769 116,66.5C 113.863,68.3211 113.03,70.6544 113.5,73.5C 114.978,73.238 116.311,73.5713 117.5,74.5C 119.439,76.1222 119.772,77.9555 118.5,80C 121.146,80.4974 123.813,80.6641 126.5,80.5C 122.265,87.2127 117.265,89.2127 111.5,86.5C 113.776,85.7868 116.109,85.2868 118.5,85C 118.957,84.586 119.291,84.086 119.5,83.5C 118.078,82.4528 116.578,82.4528 115,83.5C 111.922,82.8661 109.089,81.8661 106.5,80.5C 107.473,80.0133 108.473,79.5133 109.5,79C 108.117,77.7292 107.117,76.2292 106.5,74.5C 107.458,74.0472 108.292,73.3805 109,72.5C 108.989,69.5631 109.155,66.7298 109.5,64C 112.119,64.0833 114.786,64.25 117.5,64.5 Z"/></g>
<g><path style="opacity:1" fill="#dfdf67" d="M 146.5,38.5 C 149.919,42.3314 152.586,46.6647 154.5,51.5C 153.178,57.4754 151.844,63.4754 150.5,69.5C 149.572,71.3348 148.406,71.6682 147,70.5C 146.221,72.9063 147.054,74.573 149.5,75.5C 146.833,76.1667 145.167,77.8333 144.5,80.5C 142.877,79.5092 141.877,80.1759 141.5,82.5C 142.544,83.6226 143.21,84.9559 143.5,86.5C 144.002,91.5213 144.668,96.5213 145.5,101.5C 146.842,103.342 148.509,104.842 150.5,106C 149.416,108.825 148.249,108.992 147,106.5C 146.308,107.025 145.808,107.692 145.5,108.5C 146.833,109.833 148.167,111.167 149.5,112.5C 145.813,113.247 144.813,115.247 146.5,118.5C 145.5,119.333 144.5,120.167 143.5,121C 145.046,122.44 145.879,124.273 146,126.5C 147.941,122.446 148.775,122.78 148.5,127.5C 146.883,130.784 144.55,133.451 141.5,135.5C 141.33,134.178 141.663,133.011 142.5,132C 141.833,131.667 141.167,131.333 140.5,131C 141.973,130.29 142.64,129.124 142.5,127.5C 141.448,127.649 140.448,127.483 139.5,127C 138.01,124.8 138.343,122.966 140.5,121.5C 141.24,118.164 141.906,114.83 142.5,111.5C 141.5,110.833 140.5,110.167 139.5,109.5C 145.083,105.371 144.75,101.871 138.5,99C 139.448,98.5172 140.448,98.3505 141.5,98.5C 142.384,94.5104 141.051,91.6771 137.5,90C 138.027,84.7713 139.36,79.7713 141.5,75C 141.355,74.228 141.022,73.5613 140.5,73C 143.544,72.6411 143.878,71.9745 141.5,71C 143.773,68.4572 144.44,65.6239 143.5,62.5C 144.97,59.9179 145.637,57.0845 145.5,54C 144.847,49.309 144.18,44.809 143.5,40.5C 144.357,39.5748 145.357,38.9081 146.5,38.5 Z"/></g>
<g><path style="opacity:1" fill="#658e4b" d="M 76.5,80.5 C 85.9909,79.6598 89.9909,83.9931 88.5,93.5C 88.4975,96.3555 88.1641,99.0221 87.5,101.5C 88.0387,94.8879 86.7054,88.7212 83.5,83C 80.5368,81.1497 77.5368,81.1497 74.5,83C 73.4495,84.3848 72.1161,85.3848 70.5,86C 71.3366,87.0113 71.67,88.1779 71.5,89.5C 69.6916,89.4914 68.0249,89.9914 66.5,91C 72.3747,91.7186 78.0413,93.2186 83.5,95.5C 84.4173,98.7577 84.7507,102.091 84.5,105.5C 83.6156,102.977 82.7823,100.31 82,97.5C 81.2917,96.6195 80.4584,95.9528 79.5,95.5C 71.7684,93.9225 64.1018,92.2559 56.5,90.5C 52.1795,89.0162 49.1795,86.1829 47.5,82C 48.0944,81.5357 48.7611,81.369 49.5,81.5C 51.1477,82.8098 52.8144,84.1431 54.5,85.5C 54.8333,85.3333 55.1667,85.1667 55.5,85C 54.1667,83.6667 52.8333,82.3333 51.5,81C 54.2652,81.7203 56.5985,83.3869 58.5,86C 61.9821,88.2485 65.6487,88.7485 69.5,87.5C 67.5767,86.6922 65.5767,86.1922 63.5,86C 62.09,85.6322 61.09,84.7989 60.5,83.5C 65.8799,82.6444 71.2132,81.6444 76.5,80.5 Z"/></g>
<g><path style="opacity:1" fill="#5e9043" d="M 106.5,80.5 C 109.089,81.8661 111.922,82.8661 115,83.5C 116.578,82.4528 118.078,82.4528 119.5,83.5C 119.291,84.086 118.957,84.586 118.5,85C 116.109,85.2868 113.776,85.7868 111.5,86.5C 117.265,89.2127 122.265,87.2127 126.5,80.5C 127.239,80.369 127.906,80.5357 128.5,81C 126.833,82.6667 125.167,84.3333 123.5,86C 126.181,84.8868 128.847,83.3868 131.5,81.5C 131.833,81.8333 132.167,82.1667 132.5,82.5C 131.376,83.914 130.376,85.414 129.5,87C 124.03,90.877 118.03,93.0437 111.5,93.5C 106.34,92.9114 101.84,94.2447 98,97.5C 96.6823,103.603 95.5157,109.603 94.5,115.5C 91.9263,105.658 91.0929,95.6579 92,85.5C 92.7845,83.714 93.9512,82.214 95.5,81C 99.1516,80.5014 102.818,80.3347 106.5,80.5 Z"/></g>
<g><path style="opacity:1" fill="#579244" d="M 87.5,101.5 C 87.4916,106.815 86.4916,111.815 84.5,116.5C 84.5,112.833 84.5,109.167 84.5,105.5C 84.7507,102.091 84.4173,98.7577 83.5,95.5C 78.0413,93.2186 72.3747,91.7186 66.5,91C 68.0249,89.9914 69.6916,89.4914 71.5,89.5C 71.67,88.1779 71.3366,87.0113 70.5,86C 72.1161,85.3848 73.4495,84.3848 74.5,83C 77.5368,81.1497 80.5368,81.1497 83.5,83C 86.7054,88.7212 88.0387,94.8879 87.5,101.5 Z"/></g>
<g><path style="opacity:1" fill="#cdd15b" d="M 154.5,51.5 C 155.931,52.7804 156.598,54.4471 156.5,56.5C 155.564,60.7352 155.231,65.0685 155.5,69.5C 152.795,69.3802 152.128,70.3802 153.5,72.5C 156.184,72.9755 158.517,73.9755 160.5,75.5C 159.097,77.9046 157.43,80.0713 155.5,82C 156.022,82.9503 156.689,83.7836 157.5,84.5C 155.257,85.4742 152.924,85.8076 150.5,85.5C 148.996,89.4894 149.329,93.3228 151.5,97C 150.643,97.6891 149.977,98.5224 149.5,99.5C 151.5,100.333 153.5,101.167 155.5,102C 151.547,104.644 151.714,107.144 156,109.5C 156.483,110.448 156.649,111.448 156.5,112.5C 154.593,117.984 151.927,122.984 148.5,127.5C 148.775,122.78 147.941,122.446 146,126.5C 145.879,124.273 145.046,122.44 143.5,121C 144.5,120.167 145.5,119.333 146.5,118.5C 144.813,115.247 145.813,113.247 149.5,112.5C 148.167,111.167 146.833,109.833 145.5,108.5C 145.808,107.692 146.308,107.025 147,106.5C 148.249,108.992 149.416,108.825 150.5,106C 148.509,104.842 146.842,103.342 145.5,101.5C 144.668,96.5213 144.002,91.5213 143.5,86.5C 143.21,84.9559 142.544,83.6226 141.5,82.5C 141.877,80.1759 142.877,79.5092 144.5,80.5C 145.167,77.8333 146.833,76.1667 149.5,75.5C 147.054,74.573 146.221,72.9063 147,70.5C 148.406,71.6682 149.572,71.3348 150.5,69.5C 151.844,63.4754 153.178,57.4754 154.5,51.5 Z"/></g>
<g><path style="opacity:1" fill="#b5bd4f" d="M 156.5,56.5 C 160.777,64.8724 162.777,73.8724 162.5,83.5C 162.741,93.7497 160.741,103.416 156.5,112.5C 156.649,111.448 156.483,110.448 156,109.5C 151.714,107.144 151.547,104.644 155.5,102C 153.5,101.167 151.5,100.333 149.5,99.5C 149.977,98.5224 150.643,97.6891 151.5,97C 149.329,93.3228 148.996,89.4894 150.5,85.5C 152.924,85.8076 155.257,85.4742 157.5,84.5C 156.689,83.7836 156.022,82.9503 155.5,82C 157.43,80.0713 159.097,77.9046 160.5,75.5C 158.517,73.9755 156.184,72.9755 153.5,72.5C 152.128,70.3802 152.795,69.3802 155.5,69.5C 155.231,65.0685 155.564,60.7352 156.5,56.5 Z"/></g>
<g><path style="opacity:1" fill="#f8f7c2" d="M 56.5,90.5 C 64.1018,92.2559 71.7684,93.9225 79.5,95.5C 79.6955,100.399 80.6955,105.066 82.5,109.5C 82.3298,111.529 81.9965,113.529 81.5,115.5C 81.8178,116.647 82.4844,117.481 83.5,118C 82.2396,119.113 81.073,119.28 80,118.5C 79.5357,119.094 79.369,119.761 79.5,120.5C 78.1667,120.5 76.8333,120.5 75.5,120.5C 74.4742,111.687 72.1409,111.521 68.5,120C 69.056,120.383 69.3893,120.883 69.5,121.5C 68.207,122.842 67.3736,124.509 67,126.5C 66.5065,124.866 66.3398,123.199 66.5,121.5C 64.8333,121.5 63.1667,121.5 61.5,121.5C 60.791,120.596 59.791,120.263 58.5,120.5C 58.3777,116.187 59.0444,112.02 60.5,108C 60.3516,106.293 60.0182,104.626 59.5,103C 60.5067,101.48 61.1734,99.8133 61.5,98C 62.0124,94.8465 60.6791,93.1798 57.5,93C 56.7476,92.3292 56.4142,91.4959 56.5,90.5 Z"/></g>
<g><path style="opacity:1" fill="#d1dfa8" d="M 79.5,95.5 C 80.4584,95.9528 81.2917,96.6195 82,97.5C 82.7823,100.31 83.6156,102.977 84.5,105.5C 84.5,109.167 84.5,112.833 84.5,116.5C 84.9662,118.201 84.9662,119.701 84.5,121C 85.9308,121.465 87.0975,122.299 88,123.5C 88.3333,122.833 88.6667,122.167 89,121.5C 89.8077,123.579 89.641,125.579 88.5,127.5C 87.8076,126.975 87.3076,126.308 87,125.5C 81.1593,129.196 78.6593,127.53 79.5,120.5C 79.369,119.761 79.5357,119.094 80,118.5C 81.073,119.28 82.2396,119.113 83.5,118C 82.4844,117.481 81.8178,116.647 81.5,115.5C 81.9965,113.529 82.3298,111.529 82.5,109.5C 80.6955,105.066 79.6955,100.399 79.5,95.5 Z"/></g>
<g><path style="opacity:1" fill="#f2f199" d="M 111.5,93.5 C 112.478,93.811 113.145,94.4777 113.5,95.5C 112.729,98.8772 111.062,101.711 108.5,104C 109.282,106.74 109.782,109.574 110,112.5C 111.097,114.053 112.43,115.386 114,116.5C 117.313,113.877 119.48,110.544 120.5,106.5C 121.086,106.709 121.586,107.043 122,107.5C 122.179,111.025 122.679,114.359 123.5,117.5C 123.5,118.5 123.5,119.5 123.5,120.5C 125.099,120.232 126.432,120.566 127.5,121.5C 126.448,121.351 125.448,121.517 124.5,122C 123.062,123.569 121.562,125.069 120,126.5C 119.51,125.207 119.343,123.873 119.5,122.5C 123.172,121.955 122.838,121.622 118.5,121.5C 118.404,125.311 117.738,125.311 116.5,121.5C 115.167,123.5 115.167,125.5 116.5,127.5C 117.192,126.975 117.692,126.308 118,125.5C 119.667,128.167 121.333,128.167 123,125.5C 125.276,128.064 127.276,127.73 129,124.5C 130.795,125.719 130.628,126.719 128.5,127.5C 128.196,128.15 127.863,128.817 127.5,129.5C 129.631,130.169 131.631,130.835 133.5,131.5C 130.788,131.692 128.121,131.692 125.5,131.5C 124.262,135.311 123.596,135.311 123.5,131.5C 120.428,131.183 117.428,131.516 114.5,132.5C 115.309,134.071 115.643,135.738 115.5,137.5C 113.966,140.212 112.633,143.046 111.5,146C 111.646,148.76 112.313,151.26 113.5,153.5C 101.861,158.281 89.8609,159.614 77.5,157.5C 77.5,151.833 77.5,146.167 77.5,140.5C 80.5682,141.022 83.5682,141.855 86.5,143C 84.0684,144.087 84.4017,144.587 87.5,144.5C 87.5172,142.435 87.8505,140.435 88.5,138.5C 89.609,138.443 90.609,138.11 91.5,137.5C 92.1667,137.5 92.8333,137.5 93.5,137.5C 93.56,138.043 93.8933,138.376 94.5,138.5C 95.8847,134.622 97.0514,134.622 98,138.5C 98.3076,137.692 98.8076,137.025 99.5,136.5C 101.285,137.663 103.285,138.33 105.5,138.5C 108.011,138.712 110.178,138.045 112,136.5C 112.333,136.833 112.667,137.167 113,137.5C 113.884,135.359 113.384,133.693 111.5,132.5C 109.664,138.88 108.497,138.88 108,132.5C 107.51,133.793 107.343,135.127 107.5,136.5C 106.5,136.5 105.5,136.5 104.5,136.5C 103.978,129.864 103.145,129.864 102,136.5C 101.802,134.618 101.302,132.952 100.5,131.5C 99.5,130.5 98.5,129.5 97.5,128.5C 100.311,128.395 103.144,127.395 106,125.5C 108.456,127.321 111.289,127.988 114.5,127.5C 114.799,125.396 114.466,123.396 113.5,121.5C 112.262,125.311 111.596,125.311 111.5,121.5C 110.5,121.5 109.5,121.5 108.5,121.5C 108.167,126.833 107.833,126.833 107.5,121.5C 103.833,122.833 100.167,122.833 96.5,121.5C 95.6373,119.579 94.9707,117.579 94.5,115.5C 95.5157,109.603 96.6823,103.603 98,97.5C 101.84,94.2447 106.34,92.9114 111.5,93.5 Z"/></g>
<g><path style="opacity:1" fill="#9fac77" d="M 61.5,121.5 C 63.1667,121.5 64.8333,121.5 66.5,121.5C 66.3398,123.199 66.5065,124.866 67,126.5C 67.3736,124.509 68.207,122.842 69.5,121.5C 70.793,122.842 71.6264,124.509 72,126.5C 72.8178,121.206 73.3178,121.206 73.5,126.5C 74.8333,126.5 76.1667,126.5 77.5,126.5C 77.3398,124.801 77.5065,123.134 78,121.5C 78.4955,123.473 78.6621,125.473 78.5,127.5C 75.2123,127.927 72.2123,127.26 69.5,125.5C 68.8182,126.243 68.1515,126.909 67.5,127.5C 66.5,127.5 65.5,127.5 64.5,127.5C 64.5,125.833 64.5,124.167 64.5,122.5C 63.5,122.5 62.5,122.5 61.5,122.5C 61.2267,124.451 61.8934,125.951 63.5,127C 62.552,127.483 61.552,127.649 60.5,127.5C 60.2053,125.265 60.5386,123.265 61.5,121.5 Z"/></g>
<g><path style="opacity:1" fill="#9fad80" d="M 49.5,122.5 C 49.5,123.833 49.5,125.167 49.5,126.5C 53.0993,126.738 53.4327,125.738 50.5,123.5C 51.0347,121.899 52.0347,121.399 53.5,122C 52.7203,123.073 52.887,124.24 54,125.5C 55.579,120.818 57.4124,120.484 59.5,124.5C 59.4435,125.737 58.9435,126.737 58,127.5C 57.3333,120.833 56.6667,120.833 56,127.5C 54.5861,126.587 53.0861,126.587 51.5,127.5C 49.2231,126.925 47.2231,126.591 45.5,126.5C 46.0983,125.205 46.5983,123.872 47,122.5C 47.7697,121.402 48.603,121.402 49.5,122.5 Z"/></g>
<g><path style="opacity:1" fill="#a4b167" d="M 127.5,121.5 C 127.369,122.239 127.536,122.906 128,123.5C 128.519,122.484 129.353,121.818 130.5,121.5C 133.063,121.737 133.063,122.237 130.5,123C 132.037,124.11 132.703,125.61 132.5,127.5C 131.167,127.5 129.833,127.5 128.5,127.5C 130.628,126.719 130.795,125.719 129,124.5C 127.276,127.73 125.276,128.064 123,125.5C 121.333,128.167 119.667,128.167 118,125.5C 117.692,126.308 117.192,126.975 116.5,127.5C 115.167,125.5 115.167,123.5 116.5,121.5C 117.738,125.311 118.404,125.311 118.5,121.5C 122.838,121.622 123.172,121.955 119.5,122.5C 119.343,123.873 119.51,125.207 120,126.5C 121.562,125.069 123.062,123.569 124.5,122C 125.448,121.517 126.448,121.351 127.5,121.5 Z"/></g>
<g><path style="opacity:1" fill="#bece8d" d="M 96.5,121.5 C 100.167,122.833 103.833,122.833 107.5,121.5C 107.833,126.833 108.167,126.833 108.5,121.5C 109.5,121.5 110.5,121.5 111.5,121.5C 111.596,125.311 112.262,125.311 113.5,121.5C 114.466,123.396 114.799,125.396 114.5,127.5C 111.289,127.988 108.456,127.321 106,125.5C 103.144,127.395 100.311,128.395 97.5,128.5C 95.8561,128.714 94.3561,128.38 93,127.5C 92.5045,125.527 92.3379,123.527 92.5,121.5C 93.8333,121.5 95.1667,121.5 96.5,121.5 Z"/></g>
<g><path style="opacity:1" fill="#dde6b5" d="M 58.5,120.5 C 59.791,120.263 60.791,120.596 61.5,121.5C 60.5386,123.265 60.2053,125.265 60.5,127.5C 61.552,127.649 62.552,127.483 63.5,127C 61.8934,125.951 61.2267,124.451 61.5,122.5C 62.5,122.5 63.5,122.5 64.5,122.5C 64.5,124.167 64.5,125.833 64.5,127.5C 65.5,127.5 66.5,127.5 67.5,127.5C 67.5,128.833 67.5,130.167 67.5,131.5C 66.2072,133.364 66.2072,135.364 67.5,137.5C 68.2811,136.271 68.7811,134.938 69,133.5C 69.1251,136.289 69.9585,137.955 71.5,138.5C 70.1667,138.5 68.8333,138.5 67.5,138.5C 66.0014,139.678 65.0014,141.345 64.5,143.5C 63.5853,142.672 62.9186,141.672 62.5,140.5C 63.4279,139.232 63.5946,137.899 63,136.5C 60.6731,139.822 57.8398,140.322 54.5,138C 53.9103,136.491 53.2436,134.991 52.5,133.5C 51.5,134.5 50.5,135.5 49.5,136.5C 50.1667,136.833 50.8333,137.167 51.5,137.5C 47.6217,139.139 45.4551,137.806 45,133.5C 44.7978,135.256 44.2978,136.922 43.5,138.5C 42.5258,136.257 42.1924,133.924 42.5,131.5C 44.3904,131.297 45.8904,131.963 47,133.5C 49.1973,131.844 51.6973,130.678 54.5,130C 53.0577,129.623 52.0577,128.79 51.5,127.5C 53.0861,126.587 54.5861,126.587 56,127.5C 56.6667,120.833 57.3333,120.833 58,127.5C 58.9435,126.737 59.4435,125.737 59.5,124.5C 57.4124,120.484 55.579,120.818 54,125.5C 52.887,124.24 52.7203,123.073 53.5,122C 52.0347,121.399 51.0347,121.899 50.5,123.5C 53.4327,125.738 53.0993,126.738 49.5,126.5C 49.5,125.167 49.5,123.833 49.5,122.5C 49.5,121.833 49.5,121.167 49.5,120.5C 51.3904,120.703 52.8904,120.037 54,118.5C 55.4705,119.267 56.9705,119.933 58.5,120.5 Z"/></g>
<g><path style="opacity:1" fill="#eff2b2" d="M 106.5,74.5 C 107.117,76.2292 108.117,77.7292 109.5,79C 108.473,79.5133 107.473,80.0133 106.5,80.5C 102.818,80.3347 99.1516,80.5014 95.5,81C 93.9512,82.214 92.7845,83.714 92,85.5C 91.0929,95.6579 91.9263,105.658 94.5,115.5C 94.9707,117.579 95.6373,119.579 96.5,121.5C 95.1667,121.5 93.8333,121.5 92.5,121.5C 92.3379,123.527 92.5045,125.527 93,127.5C 94.3561,128.38 95.8561,128.714 97.5,128.5C 98.5,129.5 99.5,130.5 100.5,131.5C 99.5416,131.953 98.7083,132.619 98,133.5C 96.951,131.893 95.451,131.227 93.5,131.5C 93.5,133.5 93.5,135.5 93.5,137.5C 92.8333,137.5 92.1667,137.5 91.5,137.5C 91.2969,135.956 90.6302,134.622 89.5,133.5C 90.1667,133.167 90.8333,132.833 91.5,132.5C 89.7408,131.246 88.2408,131.579 87,133.5C 86.0475,131.408 84.7141,131.075 83,132.5C 82.2025,134.259 82.3691,135.926 83.5,137.5C 83.1525,135.86 83.6525,134.193 85,132.5C 85.3333,134.167 85.6667,135.833 86,137.5C 87.159,136.434 87.9924,136.767 88.5,138.5C 87.8505,140.435 87.5172,142.435 87.5,144.5C 84.4017,144.587 84.0684,144.087 86.5,143C 83.5682,141.855 80.5682,141.022 77.5,140.5C 77.5,146.167 77.5,151.833 77.5,157.5C 67.5246,156.512 58.5246,153.178 50.5,147.5C 54.5426,143.084 56.5426,143.751 56.5,149.5C 59.0444,149.896 61.2111,149.229 63,147.5C 63.6667,148.167 64.3333,148.833 65,149.5C 65.5782,146.435 66.7449,143.268 68.5,140C 67.944,139.617 67.6107,139.117 67.5,138.5C 68.8333,138.5 70.1667,138.5 71.5,138.5C 72.1515,137.909 72.8182,137.243 73.5,136.5C 75.5622,138.725 77.8955,139.058 80.5,137.5C 81.6309,135.926 81.7975,134.259 81,132.5C 80.3457,131.304 79.8457,131.304 79.5,132.5C 80.6446,133.891 80.6446,135.224 79.5,136.5C 78.8333,134.833 78.1667,133.167 77.5,131.5C 76.7189,132.729 76.2189,134.062 76,135.5C 74.6667,131.5 73.3333,131.5 72,135.5C 71.8882,132.553 70.3882,131.22 67.5,131.5C 67.5,130.167 67.5,128.833 67.5,127.5C 68.1515,126.909 68.8182,126.243 69.5,125.5C 72.2123,127.26 75.2123,127.927 78.5,127.5C 78.6621,125.473 78.4955,123.473 78,121.5C 77.5065,123.134 77.3398,124.801 77.5,126.5C 76.1667,126.5 74.8333,126.5 73.5,126.5C 73.3178,121.206 72.8178,121.206 72,126.5C 71.6264,124.509 70.793,122.842 69.5,121.5C 69.3893,120.883 69.056,120.383 68.5,120C 72.1409,111.521 74.4742,111.687 75.5,120.5C 76.8333,120.5 78.1667,120.5 79.5,120.5C 78.6593,127.53 81.1593,129.196 87,125.5C 87.3076,126.308 87.8076,126.975 88.5,127.5C 89.641,125.579 89.8077,123.579 89,121.5C 88.6667,122.167 88.3333,122.833 88,123.5C 87.0975,122.299 85.9308,121.465 84.5,121C 84.9662,119.701 84.9662,118.201 84.5,116.5C 86.4916,111.815 87.4916,106.815 87.5,101.5C 88.1641,99.0221 88.4975,96.3555 88.5,93.5C 89.9909,83.9931 85.9909,79.6598 76.5,80.5C 74.3642,78.331 72.8642,75.6643 72,72.5C 70.1222,71.9473 68.6222,70.9473 67.5,69.5C 70.4824,69.0371 73.4824,68.7038 76.5,68.5C 76.3367,70.8568 76.5034,73.1902 77,75.5C 78.1939,76.4303 79.5272,77.0969 81,77.5C 82.8576,74.1565 85.6909,72.8232 89.5,73.5C 89.5349,78.378 91.8682,79.7113 96.5,77.5C 96.9287,74.8527 98.2621,72.8527 100.5,71.5C 102.071,73.415 104.071,74.415 106.5,74.5 Z"/></g>
<g><path style="opacity:1" fill="#f5f5c1" d="M 18.5,61.5 C 18.335,64.8499 18.5017,68.1832 19,71.5C 20.5385,72.5458 20.7052,73.8791 19.5,75.5C 21.3079,79.3205 22.6412,83.3205 23.5,87.5C 22.5153,89.0983 22.3486,90.765 23,92.5C 25.4712,96.7905 27.6379,101.124 29.5,105.5C 30.8333,105.5 32.1667,105.5 33.5,105.5C 34.3846,111.043 35.8846,116.376 38,121.5C 41.4301,118.053 43.9301,113.387 45.5,107.5C 43.5602,104.804 44.2268,103.471 47.5,103.5C 47.6816,105.591 47.3482,107.591 46.5,109.5C 46.915,113.215 47.915,116.882 49.5,120.5C 49.5,121.167 49.5,121.833 49.5,122.5C 48.603,121.402 47.7697,121.402 47,122.5C 46.5983,123.872 46.0983,125.205 45.5,126.5C 47.2231,126.591 49.2231,126.925 51.5,127.5C 52.0577,128.79 53.0577,129.623 54.5,130C 51.6973,130.678 49.1973,131.844 47,133.5C 45.8904,131.963 44.3904,131.297 42.5,131.5C 42.1924,133.924 42.5258,136.257 43.5,138.5C 44.2978,136.922 44.7978,135.256 45,133.5C 45.4551,137.806 47.6217,139.139 51.5,137.5C 50.8333,137.167 50.1667,136.833 49.5,136.5C 50.5,135.5 51.5,134.5 52.5,133.5C 53.2436,134.991 53.9103,136.491 54.5,138C 57.8398,140.322 60.6731,139.822 63,136.5C 63.5946,137.899 63.4279,139.232 62.5,140.5C 62.9186,141.672 63.5853,142.672 64.5,143.5C 65.0014,141.345 66.0014,139.678 67.5,138.5C 67.6107,139.117 67.944,139.617 68.5,140C 66.7449,143.268 65.5782,146.435 65,149.5C 64.3333,148.833 63.6667,148.167 63,147.5C 61.2111,149.229 59.0444,149.896 56.5,149.5C 56.5426,143.751 54.5426,143.084 50.5,147.5C 27.2869,132.929 15.2869,111.762 14.5,84C 14.1221,76.0689 15.4554,68.5689 18.5,61.5 Z"/></g>
<g><path style="opacity:1" fill="#aab669" d="M 133.5,131.5 C 134.376,131.369 135.043,131.702 135.5,132.5C 135.12,134.021 134.954,135.687 135,137.5C 134.333,136.167 133.333,135.167 132,134.5C 129.415,139.814 127.415,139.481 126,133.5C 124.895,138.628 123.562,138.628 122,133.5C 121.115,140.078 119.948,140.078 118.5,133.5C 117.943,135.332 116.943,136.665 115.5,137.5C 115.643,135.738 115.309,134.071 114.5,132.5C 117.428,131.516 120.428,131.183 123.5,131.5C 123.596,135.311 124.262,135.311 125.5,131.5C 128.121,131.692 130.788,131.692 133.5,131.5 Z"/></g>
<g><path style="opacity:1" fill="#9aab79" d="M 67.5,131.5 C 70.3882,131.22 71.8882,132.553 72,135.5C 73.3333,131.5 74.6667,131.5 76,135.5C 76.2189,134.062 76.7189,132.729 77.5,131.5C 78.1667,133.167 78.8333,134.833 79.5,136.5C 80.6446,135.224 80.6446,133.891 79.5,132.5C 79.8457,131.304 80.3457,131.304 81,132.5C 81.7975,134.259 81.6309,135.926 80.5,137.5C 77.8955,139.058 75.5622,138.725 73.5,136.5C 72.8182,137.243 72.1515,137.909 71.5,138.5C 69.9585,137.955 69.1251,136.289 69,133.5C 68.7811,134.938 68.2811,136.271 67.5,137.5C 66.2072,135.364 66.2072,133.364 67.5,131.5 Z"/></g>
<g><path style="opacity:1" fill="#adb678" d="M 91.5,137.5 C 90.609,138.11 89.609,138.443 88.5,138.5C 87.9924,136.767 87.159,136.434 86,137.5C 85.6667,135.833 85.3333,134.167 85,132.5C 83.6525,134.193 83.1525,135.86 83.5,137.5C 82.3691,135.926 82.2025,134.259 83,132.5C 84.7141,131.075 86.0475,131.408 87,133.5C 88.2408,131.579 89.7408,131.246 91.5,132.5C 90.8333,132.833 90.1667,133.167 89.5,133.5C 90.6302,134.622 91.2969,135.956 91.5,137.5 Z"/></g>
<g><path style="opacity:1" fill="#acb96f" d="M 100.5,131.5 C 101.302,132.952 101.802,134.618 102,136.5C 103.145,129.864 103.978,129.864 104.5,136.5C 105.5,136.5 106.5,136.5 107.5,136.5C 107.343,135.127 107.51,133.793 108,132.5C 108.497,138.88 109.664,138.88 111.5,132.5C 113.384,133.693 113.884,135.359 113,137.5C 112.667,137.167 112.333,136.833 112,136.5C 110.178,138.045 108.011,138.712 105.5,138.5C 103.285,138.33 101.285,137.663 99.5,136.5C 98.8076,137.025 98.3076,137.692 98,138.5C 97.0514,134.622 95.8847,134.622 94.5,138.5C 93.8933,138.376 93.56,138.043 93.5,137.5C 93.5,135.5 93.5,133.5 93.5,131.5C 95.451,131.227 96.951,131.893 98,133.5C 98.7083,132.619 99.5416,131.953 100.5,131.5 Z"/></g>
</svg>
